<?xml version="1.0" standalone="no"?>
<!DOCTYPE svg PUBLIC "-//W3C//DTD SVG 20010904//EN"
 "http://www.w3.org/TR/2001/REC-SVG-20010904/DTD/svg10.dtd">
<svg version="1.0" xmlns="http://www.w3.org/2000/svg"
 width="603.000000pt" height="566.000000pt" viewBox="0 0 603.000000 566.000000"
 preserveAspectRatio="xMidYMid meet">
<metadata>
Created by potrace 1.16, written by Peter Selinger 2001-2019
</metadata>
<g transform="translate(0.000000,566.000000) scale(0.100000,-0.100000)"
fill="#000000" stroke="none">
<path d="M921 5644 c-177 -38 -322 -168 -382 -344 -21 -61 -23 -85 -27 -375
l-3 -310 80 -80 c45 -44 81 -83 81 -87 0 -4 -25 -43 -56 -85 -125 -174 -251
-410 -328 -616 -41 -110 -106 -330 -105 -355 0 -9 15 37 34 103 96 343 246
651 444 910 l30 40 -87 88 -87 87 2528 0 c1390 0 2527 -3 2527 -6 0 -3 -18
-28 -41 -55 -22 -27 -38 -49 -35 -49 2 0 25 25 50 56 l46 56 0 288 c0 172 -4
310 -11 342 -40 190 -204 352 -398 394 -98 20 -4164 19 -4260 -2z"/>
<path d="M1330 3855 l0 -185 1730 0 1730 0 0 185 0 185 -1730 0 -1730 0 0
-185z"/>
<path d="M1330 3215 l0 -185 1730 0 1730 0 0 185 0 185 -1730 0 -1730 0 0
-185z"/>
<path d="M1330 2575 l0 -185 1355 0 1355 0 0 185 0 185 -1355 0 -1355 0 0
-185z"/>
<path d="M5918 2269 c-93 -453 -324 -898 -655 -1264 -347 -383 -855 -696
-1355 -836 -65 -18 -116 -35 -113 -37 2 -2 53 10 113 27 291 83 577 215 832
386 529 353 915 853 1110 1435 38 115 93 335 88 357 -2 9 -11 -22 -20 -68z"/>
<path d="M245 1995 c11 -50 95 -255 152 -368 322 -644 893 -1145 1600 -1406
62 -22 119 -41 125 -41 7 0 -52 25 -132 55 -805 302 -1408 894 -1707 1675 -24
63 -41 102 -38 85z"/>
</g>
</svg>
